<?xml version="1.0" encoding="iso-8859-1"?>
<!-- Uploaded to: SVG Repo, www.svgrepo.com, Generator: SVG Repo Mixer Tools -->
<svg height="800px" width="800px" version="1.1" id="Layer_1" xmlns="http://www.w3.org/2000/svg" xmlns:xlink="http://www.w3.org/1999/xlink" 
	 viewBox="0 0 512 512" xml:space="preserve">
<path style="fill:#E6563A;" d="M282.478,512h-48.119c-14.369,0-27.196-8.576-32.696-21.848s-2.489-28.413,7.674-38.576
	l34.858-34.858c6.521-6.521,17.087-6.521,23.609,0L306.087,455c9.587,9.587,12.424,23.869,7.239,36.391S296.033,512,282.478,512z"/>
<path style="fill:#D9472B;" d="M282.478,512c13.555,0,25.663-8.087,30.848-20.609s2.347-26.804-7.239-36.391l-38.283-38.283
	c-3.261-3.261-7.533-4.892-11.804-4.892v100.174h26.478V512z"/>
<path style="fill:#FF6698;" d="M256,445.217c-110.978,0-200.348-133.957-200.348-244.87C55.652,89.88,145.533,0,256,0
	s200.348,89.88,200.348,200.348C456.348,311.26,366.978,445.217,256,445.217z"/>
<path style="fill:#E65C89;" d="M456.348,200.348C456.348,89.88,366.467,0,256,0v445.217
	C366.978,445.217,456.348,311.26,456.348,200.348z"/>
<path style="fill:#D7EBFF;" d="M372.87,217.043c-9.217,0-16.696-7.479-16.696-16.696c0-55.239-44.935-100.174-100.174-100.174
	c-9.217,0-16.696-7.479-16.696-16.696S246.783,66.783,256,66.783c73.652,0,133.565,59.913,133.565,133.565
	C389.565,209.565,382.087,217.043,372.87,217.043z"/>
<path style="fill:#DAE1E6;" d="M356.174,200.348c0,9.217,7.479,16.696,16.696,16.696c9.217,0,16.696-7.479,16.696-16.696
	c0-73.652-59.913-133.565-133.565-133.565v33.391C311.239,100.174,356.174,145.109,356.174,200.348z"/>
</svg>